# xmcd CD database file
#
# Track frame offsets:
#	150
#	13024
#	29910
#	44676
#	57990
#	71021
#	87552
#	99021
#	113725
#	128812
#	145426
#	163065
#	174003
#	190304
#	202939
#	217436
#	234956
#	273468
#	289096
#	312573
#	327349
#	341251
#	361119
#	383335
#
# Disc length: 5316 seconds
#
# Revision: 0
# Processed by: cddbd v1.5.2PL0 Copyright (c) Steve Scherf et al.
# Submitted via: CDex 1.70beta2
#
DISCID=6b14c218
DTITLE=Various Artist - Electric Blues Vol4 1970-2005
DYEAR=2011
DGENRE=Blues
TTITLE0=Ted Taylor - Something Strange Is Goin' On In My House
TTITLE1=Al Green - I Can't Get Next To You
TTITLE2=Israel 'Popper Stopper' Tolbert - Beg Leg Woman
TTITLE3=Bill Coday - Get Your Lie Straight
TTITLE4=Z.Z. Hill - Don't Make Me Pay For His Mistakes
TTITLE5=O.V. Wright - A Nickel And A Nail
TTITLE6=Bobby Rush - Chicken Heads
TTITLE7=Lilttle Johnny Taylor - Everybody Knows About My Good Thing
TTITLE8=Joe Simon - Drowning In The Sea Of Love
TTITLE9=Little Beaver - Joey
TTITLE10=Little Milton - That's What Love Willl Make You Do
TTITLE11=Ann Peebles - Braking Up Somebody's Home
TTITLE12=Albert King - I'll Play The Blues For You
TTITLE13=Denise LaSalle - Man Sized Job
TTITLE14=Betty Lavette - Your Turn To Cry
TTITLE15=Little Sonny - It's Hard Going Up
TTITLE16=B.B. King - To Know You Is To Love You
TTITLE17=Johnnie Taylor - Cheaper To Keep Her
TTITLE18=Latimore - Let's Straighten It Out
TTITLE19=Bobby Bland - I Wouldn't Treat A Dog
TTITLE20=Syl Johnson - Take Me To The River
TTITLE21=Tyrone Davis - Turning Point
TTITLE22=Johnny 'Guitar' Watson - Ain't That A Bitch
TTITLE23=Artie White - Leanin' Tree
EXTD=YEAR: 2011
EXTT0=
EXTT1=
EXTT2=
EXTT3=
EXTT4=
EXTT5=
EXTT6=
EXTT7=
EXTT8=
EXTT9=
EXTT10=
EXTT11=
EXTT12=
EXTT13=
EXTT14=
EXTT15=
EXTT16=
EXTT17=
EXTT18=
EXTT19=
EXTT20=
EXTT21=
EXTT22=
EXTT23=
PLAYORDER=
